<mxfile host="Electron" modified="2023-04-30T17:08:55.012Z" agent="Mozilla/5.0 (Windows NT 10.0; Win64; x64) AppleWebKit/537.36 (KHTML, like Gecko) draw.io/21.2.1 Chrome/112.0.5615.87 Electron/24.1.2 Safari/537.36" etag="JyRO0cI-ucmYRq4MLM6i" version="21.2.1" type="device">
  <diagram name="Page-1" id="-mfK607m_bQ1BanPSRVD">
    <mxGraphModel dx="864" dy="524" grid="0" gridSize="10" guides="1" tooltips="1" connect="1" arrows="1" fold="1" page="1" pageScale="1" pageWidth="850" pageHeight="1100" background="#ffffff" math="0" shadow="0">
      <root>
        <mxCell id="0" />
        <mxCell id="1" parent="0" />
        <mxCell id="Y7zQYgnRQt1sd-clHV-1-1" value="Administrator" style="shape=umlActor;verticalLabelPosition=bottom;verticalAlign=top;html=1;outlineConnect=0;" vertex="1" parent="1">
          <mxGeometry x="760" y="560" width="40" height="70" as="geometry" />
        </mxCell>
        <mxCell id="Y7zQYgnRQt1sd-clHV-1-2" value="Writer" style="shape=umlActor;verticalLabelPosition=bottom;verticalAlign=top;html=1;outlineConnect=0;" vertex="1" parent="1">
          <mxGeometry x="120" y="140" width="40" height="80" as="geometry" />
        </mxCell>
        <mxCell id="Y7zQYgnRQt1sd-clHV-1-7" value="" style="ellipse;whiteSpace=wrap;html=1;" vertex="1" parent="1">
          <mxGeometry x="360" y="230" width="120" height="80" as="geometry" />
        </mxCell>
        <mxCell id="Y7zQYgnRQt1sd-clHV-1-8" value="" style="ellipse;whiteSpace=wrap;html=1;" vertex="1" parent="1">
          <mxGeometry x="360" y="230" width="120" height="80" as="geometry" />
        </mxCell>
        <mxCell id="Y7zQYgnRQt1sd-clHV-1-9" value="" style="ellipse;whiteSpace=wrap;html=1;" vertex="1" parent="1">
          <mxGeometry x="360" y="230" width="120" height="80" as="geometry" />
        </mxCell>
        <mxCell id="Y7zQYgnRQt1sd-clHV-1-10" value="" style="ellipse;whiteSpace=wrap;html=1;" vertex="1" parent="1">
          <mxGeometry x="360" y="230" width="120" height="80" as="geometry" />
        </mxCell>
        <mxCell id="Y7zQYgnRQt1sd-clHV-1-11" value="" style="ellipse;whiteSpace=wrap;html=1;" vertex="1" parent="1">
          <mxGeometry x="360" y="230" width="120" height="80" as="geometry" />
        </mxCell>
        <mxCell id="Y7zQYgnRQt1sd-clHV-1-16" value="" style="rounded=0;whiteSpace=wrap;html=1;" vertex="1" parent="1">
          <mxGeometry x="300" y="110" width="340" height="630" as="geometry" />
        </mxCell>
        <mxCell id="Y7zQYgnRQt1sd-clHV-1-61" style="rounded=0;orthogonalLoop=1;jettySize=auto;html=1;endArrow=none;endFill=0;" edge="1" parent="1" source="Y7zQYgnRQt1sd-clHV-1-28">
          <mxGeometry relative="1" as="geometry">
            <mxPoint x="140" y="180" as="targetPoint" />
          </mxGeometry>
        </mxCell>
        <mxCell id="Y7zQYgnRQt1sd-clHV-1-28" value="Daily jotting" style="ellipse;whiteSpace=wrap;html=1;" vertex="1" parent="1">
          <mxGeometry x="350" y="150" width="110" height="40" as="geometry" />
        </mxCell>
        <mxCell id="Y7zQYgnRQt1sd-clHV-1-58" style="rounded=0;orthogonalLoop=1;jettySize=auto;html=1;exitX=0;exitY=0.5;exitDx=0;exitDy=0;endArrow=none;endFill=0;" edge="1" parent="1" source="Y7zQYgnRQt1sd-clHV-1-29">
          <mxGeometry relative="1" as="geometry">
            <mxPoint x="140" y="180" as="targetPoint" />
          </mxGeometry>
        </mxCell>
        <mxCell id="Y7zQYgnRQt1sd-clHV-1-29" value="Reminder" style="ellipse;whiteSpace=wrap;html=1;" vertex="1" parent="1">
          <mxGeometry x="350" y="210" width="110" height="40" as="geometry" />
        </mxCell>
        <mxCell id="Y7zQYgnRQt1sd-clHV-1-59" style="rounded=0;orthogonalLoop=1;jettySize=auto;html=1;exitX=0;exitY=0.5;exitDx=0;exitDy=0;entryX=0.5;entryY=0.5;entryDx=0;entryDy=0;entryPerimeter=0;endArrow=none;endFill=0;" edge="1" parent="1" source="Y7zQYgnRQt1sd-clHV-1-30" target="Y7zQYgnRQt1sd-clHV-1-2">
          <mxGeometry relative="1" as="geometry" />
        </mxCell>
        <mxCell id="Y7zQYgnRQt1sd-clHV-1-30" value="contacts" style="ellipse;whiteSpace=wrap;html=1;" vertex="1" parent="1">
          <mxGeometry x="350" y="270" width="110" height="40" as="geometry" />
        </mxCell>
        <mxCell id="Y7zQYgnRQt1sd-clHV-1-60" style="rounded=0;orthogonalLoop=1;jettySize=auto;html=1;exitX=0.045;exitY=0.35;exitDx=0;exitDy=0;exitPerimeter=0;entryX=0.5;entryY=0.5;entryDx=0;entryDy=0;entryPerimeter=0;endArrow=none;endFill=0;" edge="1" parent="1" source="Y7zQYgnRQt1sd-clHV-1-31" target="Y7zQYgnRQt1sd-clHV-1-2">
          <mxGeometry relative="1" as="geometry">
            <mxPoint x="140" y="190" as="targetPoint" />
          </mxGeometry>
        </mxCell>
        <mxCell id="Y7zQYgnRQt1sd-clHV-1-31" value="Review" style="ellipse;whiteSpace=wrap;html=1;" vertex="1" parent="1">
          <mxGeometry x="350" y="340" width="110" height="40" as="geometry" />
        </mxCell>
        <mxCell id="Y7zQYgnRQt1sd-clHV-1-34" value="software update" style="ellipse;whiteSpace=wrap;html=1;" vertex="1" parent="1">
          <mxGeometry x="440" y="530" width="110" height="40" as="geometry" />
        </mxCell>
        <mxCell id="Y7zQYgnRQt1sd-clHV-1-35" value="Authorization" style="ellipse;whiteSpace=wrap;html=1;" vertex="1" parent="1">
          <mxGeometry x="440" y="590" width="110" height="40" as="geometry" />
        </mxCell>
        <mxCell id="Y7zQYgnRQt1sd-clHV-1-36" value="Database Backup" style="ellipse;whiteSpace=wrap;html=1;" vertex="1" parent="1">
          <mxGeometry x="440" y="650" width="110" height="40" as="geometry" />
        </mxCell>
        <mxCell id="Y7zQYgnRQt1sd-clHV-1-37" value="registration" style="ellipse;whiteSpace=wrap;html=1;" vertex="1" parent="1">
          <mxGeometry x="440" y="470" width="110" height="40" as="geometry" />
        </mxCell>
        <mxCell id="Y7zQYgnRQt1sd-clHV-1-66" style="rounded=0;orthogonalLoop=1;jettySize=auto;html=1;exitX=0.5;exitY=0.5;exitDx=0;exitDy=0;exitPerimeter=0;entryX=1;entryY=0.5;entryDx=0;entryDy=0;endArrow=none;endFill=0;" edge="1" parent="1" source="Y7zQYgnRQt1sd-clHV-1-1" target="Y7zQYgnRQt1sd-clHV-1-37">
          <mxGeometry relative="1" as="geometry">
            <mxPoint x="530" y="470" as="targetPoint" />
            <mxPoint x="745" y="644" as="sourcePoint" />
          </mxGeometry>
        </mxCell>
        <mxCell id="Y7zQYgnRQt1sd-clHV-1-67" style="rounded=0;orthogonalLoop=1;jettySize=auto;html=1;exitX=0.5;exitY=0.5;exitDx=0;exitDy=0;exitPerimeter=0;entryX=1;entryY=0.5;entryDx=0;entryDy=0;endArrow=none;endFill=0;" edge="1" parent="1" source="Y7zQYgnRQt1sd-clHV-1-1">
          <mxGeometry relative="1" as="geometry">
            <mxPoint x="550" y="550" as="targetPoint" />
            <mxPoint x="780" y="655" as="sourcePoint" />
          </mxGeometry>
        </mxCell>
        <mxCell id="Y7zQYgnRQt1sd-clHV-1-69" style="rounded=0;orthogonalLoop=1;jettySize=auto;html=1;exitX=0.5;exitY=0.5;exitDx=0;exitDy=0;exitPerimeter=0;endArrow=none;endFill=0;entryX=1;entryY=0.5;entryDx=0;entryDy=0;" edge="1" parent="1" source="Y7zQYgnRQt1sd-clHV-1-1" target="Y7zQYgnRQt1sd-clHV-1-35">
          <mxGeometry relative="1" as="geometry">
            <mxPoint x="580" y="510" as="targetPoint" />
            <mxPoint x="810" y="625" as="sourcePoint" />
          </mxGeometry>
        </mxCell>
        <mxCell id="Y7zQYgnRQt1sd-clHV-1-70" style="rounded=0;orthogonalLoop=1;jettySize=auto;html=1;entryX=1;entryY=0.5;entryDx=0;entryDy=0;endArrow=none;endFill=0;exitX=0.5;exitY=0.5;exitDx=0;exitDy=0;exitPerimeter=0;" edge="1" parent="1" source="Y7zQYgnRQt1sd-clHV-1-1" target="Y7zQYgnRQt1sd-clHV-1-36">
          <mxGeometry relative="1" as="geometry">
            <mxPoint x="590" y="530" as="targetPoint" />
            <mxPoint x="770" y="600" as="sourcePoint" />
          </mxGeometry>
        </mxCell>
      </root>
    </mxGraphModel>
  </diagram>
</mxfile>
